<svg width="124" height="40" viewBox="0 0 124 40" fill="none" xmlns="http://www.w3.org/2000/svg">
<g clip-path="url(#clip0_608_946)">
<path d="M116.402 29.5336C114.441 29.5336 112.808 27.8634 112.808 25.8375C112.808 23.8115 114.441 22.1685 116.402 22.1685C118.214 22.1685 119.995 23.6893 119.995 25.8375C119.995 27.9856 118.303 29.5336 116.402 29.5336ZM120.112 20.588C119.133 19.1568 117.262 18.5294 115.658 18.5294C112.094 18.5294 108.86 21.3619 108.86 25.8347C108.86 30.3076 112.097 33.1699 115.658 33.1699C117.202 33.1699 119.133 32.5154 120.112 31.0815V32.8115H124V11.3165H120.112V20.5907V20.588ZM100.9 18.5321C99.564 18.5321 97.3954 19.336 96.7438 21.1555V18.8906H92.8554V32.8169H96.7438V25.5116C96.7438 22.9778 98.4662 22.231 99.8615 22.231C101.257 22.231 102.503 23.2141 102.503 25.3921V32.8169H106.392V25.183C106.421 21.0089 104.52 18.5349 100.9 18.5349M85.5303 26.2557C85.5303 28.7596 83.8078 29.5363 82.4126 29.5363C81.0173 29.5363 79.7707 28.5233 79.7707 26.3453V18.8906H75.8824V26.5544C75.8526 30.7285 77.7536 33.1754 81.3742 33.1754C82.7397 33.1754 84.9381 32.3715 85.5303 30.552V32.8169H89.4186V18.8906H85.5303V26.2557ZM66.0371 29.5336C64.1065 29.5336 62.5327 28.0128 62.5327 25.8646C62.5327 23.7165 64.1065 22.1685 66.0371 22.1685C67.9678 22.1685 69.5415 23.6893 69.5415 25.8646C69.5415 28.0399 67.9678 29.5336 66.0371 29.5336ZM66.0371 33.1727C69.985 33.1727 73.4894 30.2505 73.4894 25.8673C73.4894 21.4841 69.985 18.5321 66.0371 18.5321C62.0893 18.5321 58.5849 21.4543 58.5849 25.8673C58.5849 30.2804 62.0893 33.1727 66.0371 33.1727ZM55.7971 18.5321C54.0746 18.5321 52.5009 19.5451 51.7303 21.8725V18.8906H47.8717V32.8169H51.76V28.0454C51.76 24.0804 53.1255 22.2011 55.1157 22.2011C55.5916 22.2011 56.273 22.2608 57.1058 22.7089L57.9954 18.983C57.3708 18.6544 56.5407 18.5349 55.7998 18.5349M36.8339 29.5336C34.8735 29.5336 33.2403 27.8634 33.2403 25.8375C33.2403 23.8115 34.8735 22.1685 36.8339 22.1685C38.6456 22.1685 40.4275 23.6893 40.4275 25.8375C40.4275 27.9856 38.7348 29.5336 36.8339 29.5336ZM40.5438 20.5581C39.5352 19.1866 37.6641 18.5294 36.0903 18.5294C32.5265 18.5294 29.2925 21.3619 29.2925 25.8347C29.2925 30.3076 32.5292 33.1699 36.0903 33.1699C37.6343 33.1699 39.5352 32.4829 40.5438 31.1114V31.4998C40.5438 35.109 38.9701 36.5103 36.477 36.5103C34.9925 36.5103 33.5675 35.6168 32.9726 34.335L29.7359 35.7363C30.923 38.3298 33.5053 40 36.4743 40C41.374 40 44.4322 37.1675 44.4322 31.0843V18.8879H40.5438V20.5581Z" fill="#2f2a7f"/>
<path d="M100.851 0C99.5153 0 97.3467 0.806572 96.6923 2.62611V0.358476H92.8013V14.2875H96.6923V6.97943C96.6923 4.44294 98.4148 3.69883 99.8101 3.69883C101.205 3.69883 102.455 4.68192 102.455 6.85994V14.2875H106.346V6.65083C106.375 2.47403 104.474 0 100.851 0ZM82.7235 11.0069C80.7928 11.0069 79.2191 9.48605 79.2191 7.33791C79.2191 5.18976 80.7928 3.63908 82.7235 3.63908C84.6541 3.63908 86.2279 5.15989 86.2279 7.33791C86.2279 9.51592 84.6541 11.0069 82.7235 11.0069ZM82.7235 14.6459C86.674 14.6459 90.1784 11.7238 90.1784 7.33791C90.1784 2.952 86.674 0 82.7235 0C78.7729 0 75.2686 2.92213 75.2686 7.33791C75.2686 11.7537 78.7729 14.6459 82.7235 14.6459Z" fill="#2f2a7f"/>
<path d="M72.5456 14.2875V6.66984C72.5456 2.5039 70.7393 0.035305 67.2728 0.035305C65.8288 0.035305 63.6792 0.744111 62.6652 2.7456C61.8323 1.00211 60.3127 0.035305 58.1441 0.035305C56.692 0.035305 54.5315 0.749542 53.5229 2.77276C53.4391 2.59352 53.3418 2.42515 53.2417 2.2622C53.2309 2.24591 53.2201 2.22962 53.2093 2.21332C53.1336 2.09383 53.0552 1.97705 52.9713 1.86842C52.9416 1.82769 52.9091 1.78695 52.8794 1.74622C52.8145 1.66474 52.7442 1.5887 52.6739 1.51266C52.5765 1.40675 52.4765 1.30898 52.371 1.21393C52.3278 1.17591 52.2872 1.13518 52.2413 1.09716C52.1682 1.03741 52.0925 0.983095 52.0168 0.92878C51.9654 0.89076 51.9141 0.855456 51.8627 0.820151C51.7924 0.773984 51.7194 0.727816 51.6437 0.684365C51.5598 0.635482 51.476 0.59203 51.3868 0.551294C51.3381 0.526852 51.2921 0.499695 51.2408 0.477969C51.23 0.472538 51.2218 0.467106 51.211 0.464391C50.5675 0.187386 49.8266 0.0380208 48.9829 0.0380208C47.5309 0.0380208 45.3677 0.752258 44.3618 2.77548C43.5317 1.02112 41.9634 0.0380208 39.9191 0.0380208C38.4373 0.0380208 36.5716 0.901623 36.0091 2.62611V0.393782H32.1289V14.2875H36.0091V6.96857C36.0091 4.47009 37.4314 3.69611 38.824 3.69611C40.1273 3.69611 41.2522 4.64933 41.2522 6.84907V14.2875H45.1324V7.44382C45.1324 4.85573 46.1978 3.66624 47.8581 3.69611C49.2209 3.69611 50.3458 4.61946 50.3458 6.78933V14.2875H54.2909V7.44382C54.2909 4.85573 55.3563 3.66624 57.0165 3.69611C58.3793 3.69611 59.5042 4.61946 59.5042 6.78933V14.2875H63.4169V7.44382C63.4169 4.85573 64.4823 3.66624 66.1425 3.69611C67.5053 3.69611 68.6302 4.61946 68.6302 6.78933V14.2875H72.5402H72.5456Z" fill="#2f2a7f"/>
<path d="M22.0349 11.0069C20.1042 11.0069 18.5305 9.48605 18.5305 7.33791C18.5305 5.18976 20.1042 3.63908 22.0349 3.63908C23.9655 3.63908 25.5393 5.15989 25.5393 7.33791C25.5393 9.51592 23.9655 11.0069 22.0349 11.0069ZM22.0349 14.6459C25.9854 14.6459 29.4898 11.7238 29.4898 7.33791C29.4898 2.952 25.9854 0 22.0349 0C18.0843 0 14.58 2.92213 14.58 7.33791C14.58 11.7537 18.0843 14.6459 22.0349 14.6459ZM7.60365 14.6459C10.1292 14.6459 12.1491 13.4836 13.4551 11.6641L10.5159 9.60554C9.89123 10.4691 8.73392 11.0069 7.63609 11.0069C5.43774 11.0069 3.95325 9.33668 3.95325 7.27816C3.95325 5.21963 5.43774 3.63908 7.63609 3.63908C8.73392 3.63908 9.89393 4.17679 10.5159 5.0404L13.4551 2.98187C12.1464 1.16233 10.1265 0 7.60365 0C3.56387 0 0 2.86238 0 7.27816C0 11.6939 3.56387 14.6459 7.60365 14.6459Z" fill="#2f2a7f"/>
</g>
<defs>
<clipPath id="clip0_608_946">
<rect width="124" height="40" fill="white"/>
</clipPath>
</defs>
</svg>
